<svg id="Layer_1" data-name="Layer 1" xmlns="http://www.w3.org/2000/svg" viewBox="0 0 129.31 46"><defs><style>.cls-1{fill:#ff4f5e;}.cls-2{fill:#59cbb7;stroke:#59cbb7;stroke-miterlimit:10;stroke-width:0.5px;}</style></defs><title>L1</title><g id="g3108"><path id="path3110" class="cls-1" d="M29.6,13c.87-2.5,6-6.6,8.11-8.46a1.43,1.43,0,0,1,1.74-.1C40.73,5.67,41.19,6,42.07,5.6s1-1.19,4.1-3.9a2.92,2.92,0,0,1,2.95-.53c.87.22,1.76,1.43,7.16,1,1.64-.12-2.77,1.73-6,1.64s-3.21-1-4.67-.1-.83,3.4-2.57,4.87S39.21,7,38.17,7c-2.11,0-7.65,6.21-8.57,6Z"/><path id="path3112" class="cls-1" d="M37.24,16c.89-2.33,6.17-6.15,8.37-7.87a1.6,1.6,0,0,1,1.8-.1c1.32,1.12,1.79,1.39,2.7,1s1-1.1,4.23-3.63a3.26,3.26,0,0,1,3-.49c.89.21,1.81,1.34,7.38,1,1.69-.11-2.86,1.61-6.14,1.53s-3.31-.9-4.82-.1-.85,3.17-2.65,4.54-4-1.52-5.08-1.53c-2.18,0-7.89,5.78-8.84,5.63Z"/></g><g id="g1091"><path id="path1074" class="cls-1" d="M9.73,33.47l-2.22.75a9.52,9.52,0,0,1-1-2.14A7.16,7.16,0,0,1,6.19,30a4,4,0,0,1,1-2.81A3.5,3.5,0,0,1,9.89,26a4,4,0,0,1,1.62.29,4.12,4.12,0,0,1,1.24.82,15.62,15.62,0,0,1,1.6,1.93,16.4,16.4,0,0,0,1.54,1.87,4.27,4.27,0,0,0,1.18.85,3.59,3.59,0,0,0,1.39.26,2.62,2.62,0,0,0,2.15-.89,4,4,0,0,0,.73-2.57A5.83,5.83,0,0,0,20.17,25a9.28,9.28,0,0,0-3.62-2.7l1-2.11A10.57,10.57,0,0,1,22,23.61a7.94,7.94,0,0,1,1.61,4.84,6,6,0,0,1-1.39,4.24A5,5,0,0,1,18.3,34.2a5.33,5.33,0,0,1-2.92-.78,13.55,13.55,0,0,1-3-3.2A10.87,10.87,0,0,0,11,28.53a1.57,1.57,0,0,0-1.07-.41,1.27,1.27,0,0,0-1,.51,2,2,0,0,0-.4,1.31,5.13,5.13,0,0,0,.29,1.74,7.65,7.65,0,0,0,1,1.79ZM5,17.24V15.18H9.5a3.83,3.83,0,0,1-.13-1,2.71,2.71,0,0,1,1.07-2.23,4.41,4.41,0,0,1,2.79-.84,4.57,4.57,0,0,1,2.5.63,3.88,3.88,0,0,1,1.54,2l-2.09.53a1.87,1.87,0,0,0-1.91-1.35,2,2,0,0,0-1.33.42,1.3,1.3,0,0,0-.51,1.08,1.67,1.67,0,0,0,.2.8,5.4,5.4,0,0,1,3.42.92,3.22,3.22,0,0,1,1.1,2.62,3.71,3.71,0,0,1-.33,1.54,2.75,2.75,0,0,1-.94,1.16,4.27,4.27,0,0,1-1.49.63,11.26,11.26,0,0,1-2.28.19H9.6V20.19h1.83A5.48,5.48,0,0,0,13,20a1.4,1.4,0,0,0,.71-.48,1.34,1.34,0,0,0,.24-.81,1.45,1.45,0,0,0-.28-.93,1.2,1.2,0,0,0-.73-.46,5.82,5.82,0,0,0-1.37-.12Z"/><path id="path1076" class="cls-1" d="M32.61,27.16a4.56,4.56,0,0,0,.6-1.15,3.46,3.46,0,0,0,.17-1.09,2.61,2.61,0,0,0-.81-2,3.23,3.23,0,0,0-2.29-.76,3.29,3.29,0,0,0-2.23.72,2.37,2.37,0,0,0-.81,1.88,3,3,0,0,0,.4,1.47,6.39,6.39,0,0,0,1.25,1.55c.56.54,1.46,1.28,2.7,2.24a16.7,16.7,0,0,1,4.06,4.06,7.77,7.77,0,0,1,1.14,4.19,4.75,4.75,0,0,1-1.32,3.52,5.4,5.4,0,0,1-5.71.85,6.48,6.48,0,0,1-1.87-1.41,5,5,0,0,1-1.6,1.47,4.19,4.19,0,0,1-1.89.4,3.39,3.39,0,0,1-2.54-.95,3.36,3.36,0,0,1-.93-2.46,3.1,3.1,0,0,1,1-2.33,3.33,3.33,0,0,1,2.4-.93,4.25,4.25,0,0,1,1.93.44,8.54,8.54,0,0,1,2.23,2,8.52,8.52,0,0,0,2,1.88,3.33,3.33,0,0,0,1.56.37,2.3,2.3,0,0,0,1.87-.79,3.15,3.15,0,0,0,.67-2.14,5.11,5.11,0,0,0-.48-2.26,8.27,8.27,0,0,0-1.55-2.08,32.54,32.54,0,0,0-3.19-2.77A14.59,14.59,0,0,1,26,27.79a5.48,5.48,0,0,1-.94-3.06,4.19,4.19,0,0,1,1.46-3.25,5.56,5.56,0,0,1,3.8-1.29,5.41,5.41,0,0,1,3.84,1.27,4.22,4.22,0,0,1,1.38,3.27,5.85,5.85,0,0,1-1.23,3.5Zm-6,12.58a6.38,6.38,0,0,0-1.08-1.11,1.91,1.91,0,0,0-1.17-.35,1.34,1.34,0,0,0-1,.4A1.4,1.4,0,0,0,23,39.74a1.43,1.43,0,0,0,.42,1.1,1.47,1.47,0,0,0,1.11.41,1.91,1.91,0,0,0,1.16-.37,3.36,3.36,0,0,0,1-1.14Z"/><path id="path1078" class="cls-1" d="M47.34,31.85a5.19,5.19,0,0,1-1.71,1.77,5,5,0,0,1-2.58.58A4.38,4.38,0,0,1,39.86,33a4.1,4.1,0,0,1-1.23-3.09,4,4,0,0,1,.4-1.69,4.07,4.07,0,0,1,1.18-1.43h-2.7v-2h6.4v1.94q-3.07.72-3.07,3.07a2.24,2.24,0,0,0,.62,1.66,2.38,2.38,0,0,0,1.74.61,2.79,2.79,0,0,0,2.11-.84,3.63,3.63,0,0,0,1-2.38H48.4a3.61,3.61,0,0,0,1,2.37,2.86,2.86,0,0,0,2.11.85,2.66,2.66,0,0,0,2.16-.85,4,4,0,0,0,.74-2.61,5.77,5.77,0,0,0-1.85-4.35,7.19,7.19,0,0,0-4.65-2l.83-2.06a9.83,9.83,0,0,1,5.84,2.87,7.78,7.78,0,0,1,2.1,5.49,6,6,0,0,1-1.35,4.16,4.59,4.59,0,0,1-3.59,1.49,5.44,5.44,0,0,1-2.5-.5,5.78,5.78,0,0,1-1.85-1.85ZM45.79,17.68a9.51,9.51,0,0,0,.53,1.56,1.85,1.85,0,0,0,.53.75,1.29,1.29,0,0,0,.72.2,1.71,1.71,0,0,0,1-.34A7.59,7.59,0,0,0,50,18.38l.84-1.09a10,10,0,0,1,2.58-2.55A5.39,5.39,0,0,1,56.26,14l.14,2.11a5,5,0,0,0-1.53.28,3.66,3.66,0,0,0-1.1.66,12.24,12.24,0,0,0-1.38,1.57l-.62.81a9.67,9.67,0,0,1-2.13,2.13,3.93,3.93,0,0,1-2.23.67,3.2,3.2,0,0,1-2.48-1,6.83,6.83,0,0,1-1.41-2.83Z"/><path id="path1080" class="cls-1" d="M59.21,41.23a5.33,5.33,0,0,1-1.63,1.41,4.31,4.31,0,0,1-2,.44A3.65,3.65,0,0,1,53,42.15a3.15,3.15,0,0,1-1-2.44,2.9,2.9,0,0,1,1.12-2.27H51v-1.9h5.45v1.8a4,4,0,0,0-1.82.86A1.83,1.83,0,0,0,54,39.59a1.4,1.4,0,0,0,.47,1.12,1.81,1.81,0,0,0,1.26.42c1.3,0,2.11-.76,2.44-2.28h2c.21,1.52,1,2.28,2.29,2.28A2.32,2.32,0,0,0,64.57,40a6.69,6.69,0,0,0,.73-3.5,14.42,14.42,0,0,0-2.52-7.94,20.12,20.12,0,0,0-6.84-6.42l1.1-1.9a22.22,22.22,0,0,1,7.57,7.16,16.83,16.83,0,0,1,2.86,9.27,7.72,7.72,0,0,1-1.3,4.79,4.31,4.31,0,0,1-3.62,1.67,3.8,3.8,0,0,1-3.34-1.85ZM58.07,45l.15-2.59h1.87L60.22,45Z"/></g><path class="cls-2" d="M74,29.44a6.9,6.9,0,0,1,1.61-3,2.41,2.41,0,0,1-1.27-.77,1.8,1.8,0,0,1-.49-1.23,2.06,2.06,0,0,1,.87-1.66,3.28,3.28,0,0,1,2.1-.69,3.92,3.92,0,0,1,1.38.22,2,2,0,0,1,.94.61h.1a2.57,2.57,0,0,1,.69-.61,1.34,1.34,0,0,1,.71-.22h3.91a1.86,1.86,0,0,1,1.44.67,2.39,2.39,0,0,1,.59,1.61,2,2,0,0,1-3.46,1.43,2,2,0,0,1-.5-2.08,1.5,1.5,0,0,1,.25-.49l0-.07-.6.07H80.69a.84.84,0,0,0-.68.34,1.23,1.23,0,0,0-.27.8H78.67a1,1,0,0,0-.53-.8,2.3,2.3,0,0,0-1.29-.34,2.38,2.38,0,0,0-1.3.35,1,1,0,0,0-.55.84,1,1,0,0,0,.45.85,1.71,1.71,0,0,0,1.07.34h.82q1.59,0,2.7,2.49a14.61,14.61,0,0,1,1.11,6h-1.1a14.6,14.6,0,0,0-.8-5.12c-.53-1.41-1.17-2.12-1.93-2.12s-1.41.71-1.94,2.12A14.61,14.61,0,0,0,74.59,34H73.47A16.8,16.8,0,0,1,74,29.44Zm9.74-4.3a1.15,1.15,0,0,0,2-.81,1.1,1.1,0,0,0-.34-.8,1.12,1.12,0,0,0-1.61,0,1.15,1.15,0,0,0,0,1.61Z"/><path class="cls-2" d="M89.12,27.1a4.1,4.1,0,0,1,5.76,0,4,4,0,0,1,0,5.75,4.07,4.07,0,1,1-5.76-5.75Zm.8,4.94A2.85,2.85,0,0,0,92,32.9,2.94,2.94,0,0,0,94.93,30a2.87,2.87,0,0,0-.86-2.09A2.78,2.78,0,0,0,92,27a3,3,0,0,0-3,2.95A2.77,2.77,0,0,0,89.92,32Z"/><path class="cls-2" d="M100.49,24h.9a1.6,1.6,0,0,0,.48,1.18,1.55,1.55,0,0,0,1.15.48,1.15,1.15,0,0,0,.51-.15,2.64,2.64,0,0,0,.59-.45L107,22.33l.57.57-2.88,2.88a5.17,5.17,0,0,1,2.51,1.37,3,3,0,0,1,1,2.16,5.21,5.21,0,0,1-.19,1.4,3.73,3.73,0,0,0,1,1.43,3,3,0,0,0,2,.76,2,2,0,0,0,1.59-.86,3.43,3.43,0,0,0,.65-2.1,3.38,3.38,0,0,0-.81-2.27,2.53,2.53,0,0,0-2-.94l.26-1.12a3.37,3.37,0,0,1,2.67,1.28,4.59,4.59,0,0,1,1.1,3.09,4.16,4.16,0,0,1-1.06,2.87A3.31,3.31,0,0,1,110.86,34a3.39,3.39,0,0,1-2.09-.69,3.07,3.07,0,0,1-1.19-1.68,3.83,3.83,0,0,1-.85,1.07A5.36,5.36,0,0,1,103,34a5.17,5.17,0,0,1-3.62-1.23A4.18,4.18,0,0,1,98,29.53a2.91,2.91,0,0,1,.67-1.93,2,2,0,0,1,1.61-.8,2,2,0,0,1,1.43.6,2.05,2.05,0,0,1,0,2.88,2,2,0,0,1-1.43.6,2.06,2.06,0,0,1-.52-.06.87.87,0,0,1-.36-.18h-.12a1.87,1.87,0,0,0,1,1.64,5.23,5.23,0,0,0,2.69.61,5.54,5.54,0,0,0,2.78-.61,1.85,1.85,0,0,0,1-1.64h-.08a.62.62,0,0,1-.31.18,1.77,1.77,0,0,1-.49.06,2,2,0,0,1-2-2,1.67,1.67,0,0,1,.49-1.18,1.89,1.89,0,0,1,1.19-.57V27a3.27,3.27,0,0,0-1.08-.38,7.33,7.33,0,0,0-1.37-.13,2.51,2.51,0,0,1-1.83-.75A2.43,2.43,0,0,1,100.49,24ZM99.43,28a1.14,1.14,0,0,0,.82,1.94,1.07,1.07,0,0,0,.8-.34,1.16,1.16,0,0,0,0-1.6,1.13,1.13,0,0,0-.8-.32A1.17,1.17,0,0,0,99.43,28Zm5.66,0a1.13,1.13,0,0,0,0,1.6,1,1,0,0,0,.79.34,1.07,1.07,0,0,0,.8-.34,1.13,1.13,0,0,0,0-1.6,1.13,1.13,0,0,0-.8-.32A1.1,1.1,0,0,0,105.09,28Z"/><path class="cls-2" d="M118.39,28.8a3.22,3.22,0,0,0,1.61.37,4.07,4.07,0,0,1,2.4.7,2,2,0,0,1,1,1.68,2.11,2.11,0,0,1-1,1.76,4.2,4.2,0,0,1-2.5.73,5.29,5.29,0,0,1-2.19-.47A4.87,4.87,0,0,1,116,32.26l.78-.78a3.91,3.91,0,0,0,1.39,1.05,4.23,4.23,0,0,0,1.75.37,3.42,3.42,0,0,0,1.7-.39,1.12,1.12,0,0,0,.7-1,1.23,1.23,0,0,0-.77-1,3.76,3.76,0,0,0-1.84-.43,3.68,3.68,0,0,1-2.17-.63,1.83,1.83,0,0,1-.88-1.53,1.71,1.71,0,0,1,.42-1.07,3.06,3.06,0,0,1,1.11-.83,3.36,3.36,0,0,1-.65-1.09,4.27,4.27,0,0,1-.23-1.39h.88a2.42,2.42,0,0,0,.5,1.53,1.43,1.43,0,0,0,1.18.64,1.08,1.08,0,0,0,.53-.14,1.94,1.94,0,0,0,.54-.39l2.83-2.72.59.57-2.87,2.91a4.79,4.79,0,0,1,.87.35,6.32,6.32,0,0,1,.74.49l-.55,1a4.07,4.07,0,0,0-1.27-.74,4.21,4.21,0,0,0-1.45-.25,3,3,0,0,0-1.45.33c-.4.22-.6.48-.6.79A1,1,0,0,0,118.39,28.8Z"/></svg>